# Blender v2.60 (sub 0) OBJ File: 'untitled.blend'
# www.blender.org
v -82.298286 305.676880 49.999981
v 11.162479 341.244751 50.000031
v -46.730396 212.216064 49.999992
v 46.730389 247.783936 49.999996
v -82.298264 305.676910 -50.000000
v -82.298286 305.676880 49.999981
v 11.162479 341.244751 50.000031
v 11.162537 341.244751 -49.999973
v 11.162479 341.244751 50.000031
v 11.162537 341.244751 -49.999973
v 46.730389 247.783936 49.999996
v 46.730389 247.783936 -49.999996
v -82.298264 305.676910 -50.000000
v 11.162537 341.244751 -49.999973
v -46.730377 212.216080 -50.000019
v 46.730389 247.783936 -49.999996
v -46.730377 212.216080 -50.000019
v -46.730396 212.216064 49.999992
v 46.730389 247.783936 49.999996
v 46.730389 247.783936 -49.999996
v -82.298264 305.676910 -50.000000
v -82.298286 305.676880 49.999981
v -46.730377 212.216080 -50.000019
v -46.730396 212.216064 49.999992
vt 0.501953 0.746094
vt 0.501953 0.503906
vt 0.623047 0.503906
vt 0.623047 0.746094
vt 0.748047 0.753906
vt 0.748047 0.996094
vt 0.626953 0.996094
vt 0.626953 0.753906
vt 0.748047 0.503906
vt 0.748047 0.746094
vt 0.626953 0.746094
vt 0.626953 0.503906
vt 0.751953 0.746094
vt 0.751953 0.503906
vt 0.873047 0.503906
vt 0.873047 0.746094
vt 0.873047 0.996094
vt 0.751953 0.996094
vt 0.751953 0.753906
vt 0.873047 0.753906
vt 0.998047 0.503906
vt 0.998047 0.746094
vt 0.876953 0.746094
vt 0.876953 0.503906
vn -0.000000 -0.000000 1.000000
vn -0.355679 0.934608 -0.000000
vn 0.934608 0.355679 0.000000
vn 0.000000 0.000000 -1.000000
vn 0.355679 -0.934608 -0.000000
vn -0.934608 -0.355679 -0.000000
usemtl Skin_American-football-hel
s off
f 1/1/1 3/2/1 4/3/1
f 1/1/1 4/3/1 2/4/1
f 8/5/2 5/6/2 6/7/2
f 8/5/2 6/7/2 7/8/2
f 12/9/3 10/10/3 9/11/3
f 12/9/3 9/11/3 11/12/3
f 14/13/4 16/14/4 15/15/4
f 14/13/4 15/15/4 13/16/4
f 20/17/5 19/18/5 18/19/5
f 20/17/5 18/19/5 17/20/5
f 24/21/6 22/22/6 21/23/6
f 24/21/6 21/23/6 23/24/6
v 18.250372 128.180664 -39.999989
v 18.250395 128.180664 -0.000011
v 67.334351 18.678314 -39.999981
v 67.334351 18.678314 -0.000001
v -18.250380 111.819351 0.000000
v -18.250387 111.819344 -39.999973
v 30.833588 2.317001 0.000007
v 30.833580 2.317001 -39.999977
v -18.250387 111.819344 -39.999973
v 18.250372 128.180664 -39.999989
v 30.833580 2.317001 -39.999977
v 67.334351 18.678314 -39.999981
v 30.833588 2.317001 0.000007
v 30.833580 2.317001 -39.999977
v 67.334351 18.678314 -39.999981
v 67.334351 18.678314 -0.000001
v -18.250380 111.819351 0.000000
v -18.250387 111.819344 -39.999973
v 18.250372 128.180664 -39.999989
v 18.250395 128.180664 -0.000011
v 67.334351 18.678314 0.000001
v 67.334351 18.678314 -0.000001
v 30.833588 2.317001 -0.000007
v 30.833588 2.317001 0.000007
v 18.250395 128.180664 0.000011
v 18.250395 128.180664 -0.000011
v -18.250380 111.819351 0.000000
v -18.250380 111.819351 0.000000
vt 0.064453 0.371094
vt 0.123047 0.371094
vt 0.123047 0.003906
vt 0.064453 0.003906
vt 0.189453 0.371094
vt 0.248047 0.371094
vt 0.248047 0.003906
vt 0.189453 0.003906
vt 0.001953 0.371094
vt 0.060547 0.371094
vt 0.060547 0.003906
vt 0.001953 0.003906
vt 0.126953 0.378906
vt 0.126953 0.496094
vt 0.185547 0.496094
vt 0.185547 0.378906
vt 0.064453 0.496094
vt 0.123047 0.496094
vt 0.123047 0.378906
vt 0.064453 0.378906
vt 0.125000 0.375000
vt 0.125000 0.003906
vt 0.187500 0.003906
vt 0.187500 0.375000
vt 0.185547 0.003906
vt 0.126953 0.003906
vt 0.126953 0.371094
vt 0.185547 0.371094
vn 0.912520 0.409033 -0.000000
vn -0.912520 -0.409033 0.000000
vn 0.409033 -0.912520 -0.000000
vn -0.409033 0.912520 0.000000
usemtl _char_lined.png
s off
f 25/25/7 26/26/7 28/27/7
f 25/25/7 28/27/7 27/28/7
f 29/29/8 30/30/8 32/31/8
f 29/29/8 32/31/8 31/32/8
f 33/33/4 34/34/4 36/35/4
f 33/33/4 36/35/4 35/36/4
f 38/37/9 39/38/9 40/39/9
f 38/37/9 40/39/9 37/40/9
f 42/41/10 41/42/10 44/43/10
f 42/41/10 44/43/10 43/44/10
f 49/45/4 45/46/4 47/47/4
f 49/45/4 47/47/4 51/48/4
f 48/49/1 46/50/1 50/51/1
f 48/49/1 50/51/1 52/52/1
v 18.766331 250.401657 -79.238113
v 18.766354 233.715012 -42.884918
v -22.726580 148.069061 -126.210205
v -22.726580 131.382416 -89.857010
v -18.766346 246.285019 -37.115097
v -18.766356 262.971649 -73.468285
v -60.259262 143.952423 -84.087196
v -60.259270 160.639053 -120.440399
v -18.766356 262.971649 -73.468285
v 18.766331 250.401657 -79.238113
v -60.259270 160.639053 -120.440399
v -22.726580 148.069061 -126.210205
v -60.259262 143.952423 -84.087196
v -60.259270 160.639053 -120.440399
v -22.726580 148.069061 -126.210205
v -22.726580 131.382416 -89.857010
v -18.766346 246.285019 -37.115097
v -18.766356 262.971649 -73.468285
v 18.766331 250.401657 -79.238113
v 18.766354 233.715012 -42.884918
v -22.726580 131.382416 -89.857010
v -60.259262 143.952423 -84.087196
v 18.766354 233.715012 -42.884918
v -18.766346 246.285019 -37.115097
vt 0.689453 0.371094
vt 0.748047 0.371094
vt 0.748047 0.003906
vt 0.689453 0.003906
vt 0.814453 0.371094
vt 0.873047 0.371094
vt 0.873047 0.003906
vt 0.814453 0.003906
vt 0.626953 0.371094
vt 0.685547 0.371094
vt 0.685547 0.003906
vt 0.626953 0.003906
vt 0.751953 0.378906
vt 0.751953 0.496094
vt 0.810547 0.496094
vt 0.810547 0.378906
vt 0.689453 0.496094
vt 0.748047 0.496094
vt 0.748047 0.378906
vt 0.689453 0.378906
vt 0.810547 0.003906
vt 0.751953 0.003906
vt 0.751953 0.371094
vt 0.810547 0.371094
vn 0.938318 -0.314250 -0.144246
vn -0.938318 0.314250 0.144245
vn -0.000000 0.417166 -0.908830
vn -0.345774 -0.852772 -0.391434
vn 0.345774 0.852772 0.391434
vn 0.000000 -0.417166 0.908830
usemtl _char_lined.png
s off
f 53/53/11 54/54/11 56/55/11
f 53/53/11 56/55/11 55/56/11
f 57/57/12 58/58/12 60/59/12
f 57/57/12 60/59/12 59/60/12
f 61/61/13 62/62/13 64/63/13
f 61/61/13 64/63/13 63/64/13
f 66/65/14 67/66/14 68/67/14
f 66/65/14 68/67/14 65/68/14
f 70/69/15 69/70/15 72/71/15
f 70/69/15 72/71/15 71/72/15
f 74/73/16 73/74/16 75/75/16
f 74/73/16 75/75/16 76/76/16
v -19.999998 240.000015 39.999966
v 19.999977 240.000015 40.000004
v -19.999992 120.000008 39.999973
v 19.999989 120.000008 39.999977
v -19.999989 240.000015 -39.999981
v -19.999998 240.000015 39.999966
v 19.999977 240.000015 40.000004
v 20.000000 240.000015 -39.999958
v 19.999977 240.000015 40.000004
v 20.000000 240.000015 -39.999958
v 19.999989 120.000008 39.999977
v 19.999989 120.000008 -39.999977
v -19.999989 240.000015 -39.999981
v 20.000000 240.000015 -39.999958
v -19.999983 120.000008 -39.999996
v 19.999989 120.000008 -39.999977
v -19.999983 120.000008 -39.999996
v -19.999992 120.000008 39.999973
v 19.999989 120.000008 39.999977
v 19.999989 120.000008 -39.999977
v -19.999989 240.000015 -39.999981
v -19.999998 240.000015 39.999966
v -19.999983 120.000008 -39.999996
v -19.999992 120.000008 39.999973
vt 0.251953 0.371094
vt 0.251953 0.003906
vt 0.310547 0.003906
vt 0.310547 0.371094
vt 0.435547 0.378906
vt 0.435547 0.496094
vt 0.314453 0.496094
vt 0.314453 0.378906
vt 0.435547 0.003906
vt 0.435547 0.371094
vt 0.314453 0.371094
vt 0.314453 0.003906
vt 0.439453 0.371094
vt 0.439453 0.003906
vt 0.498047 0.003906
vt 0.498047 0.371094
vt 0.560547 0.496094
vt 0.439453 0.496094
vt 0.439453 0.378906
vt 0.560547 0.378906
vt 0.623047 0.003906
vt 0.623047 0.371094
vt 0.501953 0.371094
vt 0.501953 0.003906
vn -0.000001 -0.000000 1.000000
vn 0.000000 1.000000 0.000000
vn 1.000000 -0.000000 0.000000
vn 0.000001 0.000000 -1.000000
vn 0.000000 -1.000000 0.000000
vn -1.000000 -0.000000 -0.000000
usemtl Skin_char_lined.png
s off
f 77/77/17 79/78/17 80/79/17
f 77/77/17 80/79/17 78/80/17
f 84/81/18 81/82/18 82/83/18
f 84/81/18 82/83/18 83/84/18
f 88/85/19 86/86/19 85/87/19
f 88/85/19 85/87/19 87/88/19
f 90/89/20 92/90/20 91/91/20
f 90/89/20 91/91/20 89/92/20
f 96/93/21 95/94/21 94/95/21
f 96/93/21 94/95/21 93/96/21
f 100/97/22 98/98/22 97/99/22
f 100/97/22 97/99/22 99/100/22
v -21.634960 254.273865 76.444252
v -7.752728 258.417114 39.160004
v 80.843216 299.381287 119.613068
v 94.725456 303.524506 82.328812
v 7.752725 221.582932 40.840008
v -6.129514 217.439697 78.124252
v 110.230904 266.690308 84.008820
v 96.348663 262.547089 121.293076
v -6.129514 217.439697 78.124252
v -21.634960 254.273865 76.444252
v 96.348663 262.547089 121.293076
v 80.843216 299.381287 119.613068
v 110.230904 266.690308 84.008820
v 96.348663 262.547089 121.293076
v 80.843216 299.381287 119.613068
v 94.725456 303.524506 82.328812
v 7.752725 221.582932 40.840008
v -6.129514 217.439697 78.124252
v -21.634960 254.273865 76.444252
v -7.752728 258.417114 39.160004
v 94.725456 303.524506 82.328812
v 110.230904 266.690308 84.008820
v -7.752728 258.417114 39.160004
v 7.752725 221.582932 40.840008
vt 0.689453 0.371094
vt 0.689453 0.003906
vt 0.748047 0.003906
vt 0.748047 0.371094
vt 0.873047 0.003906
vt 0.873047 0.371094
vt 0.814453 0.371094
vt 0.814453 0.003906
vt 0.683594 0.003906
vt 0.683594 0.371094
vt 0.626953 0.371094
vt 0.626953 0.003906
vt 0.810547 0.496094
vt 0.751953 0.496094
vt 0.751953 0.378906
vt 0.810547 0.378906
vt 0.748047 0.378906
vt 0.748047 0.496094
vt 0.689453 0.496094
vt 0.689453 0.378906
vt 0.751953 0.371094
vt 0.751953 0.003906
vt 0.810547 0.003906
vt 0.810547 0.371094
vn -0.387637 0.920855 -0.042000
vn 0.387636 -0.920855 0.042000
vn -0.347056 -0.103581 0.932107
vn 0.853985 0.375895 0.359740
vn -0.853985 -0.375895 -0.359740
vn 0.347056 0.103581 -0.932107
usemtl _char_lined.png
s off
f 101/101/23 103/102/23 104/103/23
f 101/101/23 104/103/23 102/104/23
f 108/105/24 106/106/24 105/107/24
f 108/105/24 105/107/24 107/108/24
f 112/109/25 110/110/25 109/111/25
f 112/109/25 109/111/25 111/112/25
f 116/113/26 115/114/26 114/115/26
f 116/113/26 114/115/26 113/116/26
f 120/117/27 117/118/27 118/119/27
f 120/117/27 118/119/27 119/120/27
f 123/121/28 121/122/28 122/123/28
f 123/121/28 122/123/28 124/124/28
v 18.651155 112.779655 39.999989
v 18.651178 112.779648 0.000011
v -24.670956 0.872581 39.999981
v -24.670956 0.872581 0.000001
v -18.651171 127.220352 0.000000
v -18.651178 127.220360 39.999973
v -61.973289 15.313286 -0.000007
v -61.973297 15.313286 39.999977
v -18.651178 127.220360 39.999973
v 18.651155 112.779655 39.999989
v -61.973297 15.313286 39.999977
v -24.670956 0.872581 39.999981
v -61.973289 15.313286 -0.000007
v -61.973297 15.313286 39.999977
v -24.670956 0.872581 39.999981
v -24.670956 0.872581 0.000001
v -18.651171 127.220352 0.000000
v -18.651178 127.220360 39.999973
v 18.651155 112.779655 39.999989
v 18.651178 112.779648 0.000011
v -24.670956 0.872581 0.000001
v -61.973289 15.313286 -0.000007
v 18.651178 112.779648 0.000011
v -18.651171 127.220352 0.000000
vt 0.064453 0.371094
vt 0.064453 0.003906
vt 0.123047 0.003906
vt 0.123047 0.371094
vt 0.248047 0.003906
vt 0.248047 0.371094
vt 0.189453 0.371094
vt 0.189453 0.003906
vt 0.060547 0.003906
vt 0.060547 0.371094
vt 0.001953 0.371094
vt 0.001953 0.003906
vt 0.185547 0.496094
vt 0.126953 0.496094
vt 0.126953 0.378906
vt 0.185547 0.378906
vt 0.123047 0.378906
vt 0.123047 0.496094
vt 0.064453 0.496094
vt 0.064453 0.378906
vt 0.126953 0.371094
vt 0.126953 0.003906
vt 0.185547 0.003906
vt 0.185547 0.371094
vn 0.932559 -0.361018 0.000000
vn -0.932559 0.361018 -0.000000
vn -0.361018 -0.932559 -0.000000
vn 0.361018 0.932559 -0.000000
usemtl _char_lined.png
s off
f 125/125/29 127/126/29 128/127/29
f 125/125/29 128/127/29 126/128/29
f 132/129/30 130/130/30 129/131/30
f 132/129/30 129/131/30 131/132/30
f 136/133/1 134/134/1 133/135/1
f 136/133/1 133/135/1 135/136/1
f 140/137/31 139/138/31 138/139/31
f 140/137/31 138/139/31 137/140/31
f 144/141/32 141/142/32 142/143/32
f 144/141/32 142/143/32 143/144/32
f 147/145/4 145/146/4 146/147/4
f 147/145/4 146/147/4 148/148/4
v -65.838638 300.541534 39.999966
v 8.929985 328.995819 40.000004
v -37.384319 225.772873 39.999973
v 37.384312 254.227158 39.999977
v -65.838615 300.541534 -39.999981
v -65.838638 300.541534 39.999966
v 8.929985 328.995819 40.000004
v 8.930031 328.995819 -39.999958
v 8.929985 328.995819 40.000004
v 8.930031 328.995819 -39.999958
v 37.384312 254.227158 39.999977
v 37.384312 254.227158 -39.999977
v -65.838615 300.541534 -39.999981
v 8.930031 328.995819 -39.999958
v -37.384300 225.772873 -39.999996
v 37.384312 254.227158 -39.999977
v -37.384300 225.772873 -39.999996
v -37.384319 225.772873 39.999973
v 37.384312 254.227158 39.999977
v 37.384312 254.227158 -39.999977
v -65.838615 300.541534 -39.999981
v -65.838638 300.541534 39.999966
v -37.384300 225.772873 -39.999996
v -37.384319 225.772873 39.999973
vt 0.001953 0.746094
vt 0.001953 0.503906
vt 0.123047 0.503906
vt 0.123047 0.746094
vt 0.248047 0.753906
vt 0.248047 0.996094
vt 0.126953 0.996094
vt 0.126953 0.753906
vt 0.248047 0.503906
vt 0.248047 0.746094
vt 0.126953 0.746094
vt 0.126953 0.503906
vt 0.251953 0.746094
vt 0.251953 0.503906
vt 0.373047 0.503906
vt 0.373047 0.746094
vt 0.373047 0.996094
vt 0.251953 0.996094
vt 0.251953 0.753906
vt 0.373047 0.753906
vt 0.498047 0.503906
vt 0.498047 0.746094
vt 0.376953 0.746094
vt 0.376953 0.503906
usemtl Skin_char_lined.png
s off
f 149/149/1 151/150/1 152/151/1
f 149/149/1 152/151/1 150/152/1
f 156/153/2 153/154/2 154/155/2
f 156/153/2 154/155/2 155/156/2
f 160/157/3 158/158/3 157/159/3
f 160/157/3 157/159/3 159/160/3
f 162/161/4 164/162/4 163/163/4
f 162/161/4 163/163/4 161/164/4
f 168/165/5 167/166/5 166/167/5
f 168/165/5 166/167/5 165/168/5
f 172/169/6 170/170/6 169/171/6
f 172/169/6 169/171/6 171/172/6
